<mxfile host="app.diagrams.net" modified="2023-05-13T15:27:09.008Z" agent="5.0 (Windows NT 10.0; Win64; x64) AppleWebKit/537.36 (KHTML, like Gecko) Chrome/113.0.0.0 Safari/537.36" etag="nqB1fUr2YV72hMRkW66C" version="20.3.6" type="github">
  <diagram id="vevAVDqmmd_0dMbiI2vM" name="Page-1">
    <mxGraphModel dx="1427" dy="762" grid="1" gridSize="10" guides="1" tooltips="1" connect="1" arrows="1" fold="1" page="1" pageScale="1" pageWidth="827" pageHeight="1169" math="0" shadow="0">
      <root>
        <mxCell id="0" />
        <mxCell id="1" parent="0" />
        <mxCell id="hZJj_TBALTXMjyy7DJyN-3" value="结果（软件包）" style="verticalLabelPosition=middle;verticalAlign=middle;html=1;shape=trapezoid;perimeter=trapezoidPerimeter;whiteSpace=wrap;size=0.0872093023255814;arcSize=10;flipV=1;labelPosition=center;align=center;rotation=0;fillColor=#fff2cc;strokeColor=#d6b656;" vertex="1" parent="1">
          <mxGeometry x="189" y="130" width="450" height="50" as="geometry" />
        </mxCell>
        <mxCell id="hZJj_TBALTXMjyy7DJyN-4" value="原料（源代码）" style="verticalLabelPosition=middle;verticalAlign=middle;html=1;shape=trapezoid;perimeter=trapezoidPerimeter;whiteSpace=wrap;size=0.08108108108108109;arcSize=10;flipV=1;labelPosition=center;align=center;rotation=0;fillColor=#dae8fc;strokeColor=#6c8ebf;" vertex="1" parent="1">
          <mxGeometry x="229" y="190" width="370" height="50" as="geometry" />
        </mxCell>
        <mxCell id="hZJj_TBALTXMjyy7DJyN-5" value="制作方法（构建脚本、配置文件、文档）" style="verticalLabelPosition=middle;verticalAlign=middle;html=1;shape=trapezoid;perimeter=trapezoidPerimeter;whiteSpace=wrap;size=0.1111111111111111;arcSize=10;flipV=1;labelPosition=center;align=center;rotation=0;fillColor=#dae8fc;strokeColor=#6c8ebf;" vertex="1" parent="1">
          <mxGeometry x="259" y="250" width="310" height="50" as="geometry" />
        </mxCell>
        <mxCell id="hZJj_TBALTXMjyy7DJyN-6" value="生产过程（issue、proposal）" style="verticalLabelPosition=middle;verticalAlign=middle;html=1;shape=trapezoid;perimeter=trapezoidPerimeter;whiteSpace=wrap;size=0.16304347826086957;arcSize=10;flipV=1;labelPosition=center;align=center;rotation=0;fillColor=#d5e8d4;strokeColor=#82b366;" vertex="1" parent="1">
          <mxGeometry x="299" y="310" width="230" height="50" as="geometry" />
        </mxCell>
        <mxCell id="hZJj_TBALTXMjyy7DJyN-7" value="生产决策（社区管理、授权）" style="verticalLabelPosition=middle;verticalAlign=middle;html=1;shape=trapezoid;perimeter=trapezoidPerimeter;whiteSpace=wrap;size=0.5;arcSize=10;flipV=1;labelPosition=center;align=center;rotation=0;fillColor=#d5e8d4;strokeColor=#82b366;" vertex="1" parent="1">
          <mxGeometry x="339" y="370" width="150" height="50" as="geometry" />
        </mxCell>
        <mxCell id="hZJj_TBALTXMjyy7DJyN-22" value="" style="verticalLabelPosition=middle;verticalAlign=middle;html=1;shape=trapezoid;perimeter=trapezoidPerimeter;whiteSpace=wrap;size=0.0872093023255814;arcSize=10;flipV=1;labelPosition=center;align=center;rotation=-180;fillColor=#fff2cc;strokeColor=#d6b656;" vertex="1" parent="1">
          <mxGeometry x="189" y="700" width="450" height="50" as="geometry" />
        </mxCell>
        <mxCell id="hZJj_TBALTXMjyy7DJyN-23" value="" style="verticalLabelPosition=middle;verticalAlign=middle;html=1;shape=trapezoid;perimeter=trapezoidPerimeter;whiteSpace=wrap;size=0.08108108108108109;arcSize=10;flipV=1;labelPosition=center;align=center;rotation=-180;fillColor=#dae8fc;strokeColor=#6c8ebf;" vertex="1" parent="1">
          <mxGeometry x="229" y="640" width="370" height="50" as="geometry" />
        </mxCell>
        <mxCell id="hZJj_TBALTXMjyy7DJyN-24" value="" style="verticalLabelPosition=middle;verticalAlign=middle;html=1;shape=trapezoid;perimeter=trapezoidPerimeter;whiteSpace=wrap;size=0.1111111111111111;arcSize=10;flipV=1;labelPosition=center;align=center;rotation=-180;fillColor=#dae8fc;strokeColor=#6c8ebf;" vertex="1" parent="1">
          <mxGeometry x="259" y="580" width="310" height="50" as="geometry" />
        </mxCell>
        <mxCell id="hZJj_TBALTXMjyy7DJyN-25" value="" style="verticalLabelPosition=middle;verticalAlign=middle;html=1;shape=trapezoid;perimeter=trapezoidPerimeter;whiteSpace=wrap;size=0.16304347826086957;arcSize=10;flipV=1;labelPosition=center;align=center;rotation=-180;fillColor=#d5e8d4;strokeColor=#82b366;" vertex="1" parent="1">
          <mxGeometry x="299" y="520" width="230" height="50" as="geometry" />
        </mxCell>
        <mxCell id="hZJj_TBALTXMjyy7DJyN-26" value="" style="verticalLabelPosition=middle;verticalAlign=middle;html=1;shape=trapezoid;perimeter=trapezoidPerimeter;whiteSpace=wrap;size=0.5;arcSize=10;flipV=1;labelPosition=center;align=center;rotation=-180;fillColor=#d5e8d4;strokeColor=#82b366;" vertex="1" parent="1">
          <mxGeometry x="339" y="460" width="150" height="50" as="geometry" />
        </mxCell>
        <mxCell id="hZJj_TBALTXMjyy7DJyN-27" value="开源项目蛮荒用户（以为自己没用过开源项目）" style="text;html=1;align=center;verticalAlign=middle;resizable=0;points=[];autosize=1;strokeColor=none;fillColor=none;" vertex="1" parent="1">
          <mxGeometry x="274" y="710" width="280" height="30" as="geometry" />
        </mxCell>
        <mxCell id="hZJj_TBALTXMjyy7DJyN-28" value="开源项目普通用户" style="text;html=1;align=center;verticalAlign=middle;resizable=0;points=[];autosize=1;strokeColor=none;fillColor=none;" vertex="1" parent="1">
          <mxGeometry x="354" y="650" width="120" height="30" as="geometry" />
        </mxCell>
        <mxCell id="hZJj_TBALTXMjyy7DJyN-29" value="游客类 contributor" style="text;html=1;align=center;verticalAlign=middle;resizable=0;points=[];autosize=1;strokeColor=none;fillColor=none;" vertex="1" parent="1">
          <mxGeometry x="354" y="590" width="120" height="30" as="geometry" />
        </mxCell>
        <mxCell id="hZJj_TBALTXMjyy7DJyN-30" value="长期 contributor" style="text;html=1;align=center;verticalAlign=middle;resizable=0;points=[];autosize=1;strokeColor=none;fillColor=none;" vertex="1" parent="1">
          <mxGeometry x="359" y="530" width="110" height="30" as="geometry" />
        </mxCell>
        <mxCell id="hZJj_TBALTXMjyy7DJyN-31" value="全职" style="text;html=1;align=center;verticalAlign=middle;resizable=0;points=[];autosize=1;strokeColor=none;fillColor=none;" vertex="1" parent="1">
          <mxGeometry x="389" y="470" width="50" height="30" as="geometry" />
        </mxCell>
      </root>
    </mxGraphModel>
  </diagram>
</mxfile>
